{
    "asset" : {
        "generator" : "Khronos glTF Blender I/O v1.6.16",
        "version" : "2.0"
    },
    "scene" : 0,
    "scenes" : [
        {
            "name" : "Scene",
            "nodes" : [
                0
            ]
        }
    ],
    "nodes" : [
        {
            "mesh" : 0,
            "name" : "Monster Truck Orange",
            "scale" : [
                0.5,
                0.5,
                0.5
            ],
            "translation" : [
                0,
                -1.4872225522994995,
                0
            ]
        }
    ],
    "materials" : [
        {
            "doubleSided" : true,
            "name" : "TruckMat",
            "pbrMetallicRoughness" : {
                "baseColorTexture" : {
                    "index" : 0
                },
                "metallicFactor" : 0,
                "roughnessFactor" : 0.4000000059604645
            }
        }
    ],
    "meshes" : [
        {
            "name" : "TruckMesh",
            "primitives" : [
                {
                    "attributes" : {
                        "POSITION" : 0,
                        "NORMAL" : 1,
                        "TEXCOORD_0" : 2
                    },
                    "indices" : 3,
                    "material" : 0
                }
            ]
        }
    ],
    "textures" : [
        {
            "sampler" : 0,
            "source" : 0
        }
    ],
    "images" : [
        {
            "bufferView" : 4,
            "mimeType" : "image/png",
            "name" : "TruckD_Red"
        }
    ],
    "accessors" : [
        {
            "bufferView" : 0,
            "componentType" : 5126,
            "count" : 8353,
            "max" : [
                1.4639631509780884,
                3.2790417671203613,
                2.5619795322418213
            ],
            "min" : [
                -1.4639545679092407,
                0.0005199797451496124,
                -2.873460054397583
            ],
            "type" : "VEC3"
        },
        {
            "bufferView" : 1,
            "componentType" : 5126,
            "count" : 8353,
            "type" : "VEC3"
        },
        {
            "bufferView" : 2,
            "componentType" : 5126,
            "count" : 8353,
            "type" : "VEC2"
        },
        {
            "bufferView" : 3,
            "componentType" : 5123,
            "count" : 14205,
            "type" : "SCALAR"
        }
    ],
    "bufferViews" : [
        {
            "buffer" : 0,
            "byteLength" : 100236,
            "byteOffset" : 0
        },
        {
            "buffer" : 0,
            "byteLength" : 100236,
            "byteOffset" : 100236
        },
        {
            "buffer" : 0,
            "byteLength" : 66824,
            "byteOffset" : 200472
        },
        {
            "buffer" : 0,
            "byteLength" : 28410,
            "byteOffset" : 267296
        },
        {
            "buffer" : 0,
            "byteLength" : 583638,
            "byteOffset" : 295708
        }
    ],
    "samplers" : [
        {
            "magFilter" : 9729,
            "minFilter" : 9987
        }
    ],
    "buffers" : [
        {
            "byteLength" : 879348,
            "uri" : "data:application/octet-stream;base64,"
        }
    ]
}
